<?xml version="1.0" standalone="no"?>
<!DOCTYPE svg PUBLIC "-//W3C//DTD SVG 20010904//EN"
 "http://www.w3.org/TR/2001/REC-SVG-20010904/DTD/svg10.dtd">
<svg version="1.0" xmlns="http://www.w3.org/2000/svg"
 width="2048.000000pt" height="2048.000000pt" viewBox="0 0 2048.000000 2048.000000"
 preserveAspectRatio="xMidYMid meet">
<metadata>
Created by potrace 1.14, written by Peter Selinger 2001-2017
</metadata>
<g transform="translate(0.000000,2048.000000) scale(0.100000,-0.100000)"
fill="#000000" stroke="none">
<path d="M12789 20321 c-14 -5 -36 -14 -50 -21 -17 -10 -61 -13 -152 -11 -71
1 -174 -3 -230 -10 -105 -12 -901 -14 -1188 -2 -95 3 -216 0 -345 -11 -150
-12 -221 -14 -289 -6 -150 16 -282 12 -371 -11 -345 -89 -506 -129 -526 -129
-41 0 -171 -31 -249 -61 -44 -16 -116 -33 -170 -39 -134 -16 -188 -32 -248
-74 -29 -20 -58 -36 -65 -36 -6 -1 -45 -7 -87 -14 -56 -10 -90 -23 -127 -49
-27 -19 -69 -37 -91 -41 -52 -8 -142 -47 -161 -71 -8 -10 -60 -47 -115 -82
-55 -36 -127 -91 -160 -122 -33 -32 -75 -68 -93 -81 -18 -12 -44 -40 -58 -61
-14 -22 -37 -45 -52 -52 -15 -6 -44 -26 -66 -44 -21 -17 -51 -35 -66 -38 -15
-3 -42 -22 -61 -41 -19 -19 -62 -49 -96 -66 -34 -16 -77 -48 -97 -69 -19 -22
-50 -46 -68 -54 -18 -7 -46 -28 -63 -45 -16 -18 -49 -40 -72 -50 -23 -10 -74
-48 -113 -84 -39 -36 -76 -66 -81 -66 -5 0 -25 -24 -44 -54 -20 -30 -62 -72
-96 -97 -33 -23 -71 -58 -85 -76 -14 -18 -51 -46 -83 -62 -31 -16 -63 -37 -71
-46 -7 -9 -32 -26 -54 -37 -23 -11 -61 -42 -86 -69 -40 -44 -52 -51 -112 -63
-69 -14 -90 -28 -233 -158 -41 -38 -64 -50 -114 -62 -76 -18 -102 -34 -142
-89 -16 -23 -52 -58 -78 -77 -27 -19 -92 -71 -146 -115 -53 -44 -122 -98 -153
-120 -31 -22 -66 -55 -77 -73 -20 -33 -20 -33 -90 -29 -38 2 -77 7 -85 11 -10
4 -39 -12 -82 -44 -53 -40 -68 -57 -75 -87 -14 -58 -96 -117 -207 -147 -48
-14 -94 -30 -101 -36 -23 -19 -46 -108 -39 -150 9 -53 -13 -87 -89 -143 -83
-61 -97 -93 -107 -252 -5 -66 -14 -138 -20 -160 -9 -27 -10 -74 -6 -147 5 -71
3 -127 -5 -166 -11 -54 -10 -73 15 -203 15 -79 40 -182 56 -229 16 -47 31
-119 35 -160 3 -41 17 -144 31 -229 32 -194 32 -201 3 -247 -21 -34 -25 -55
-29 -159 -5 -116 -7 -122 -42 -180 -20 -33 -44 -85 -52 -115 -8 -30 -28 -93
-44 -140 -40 -119 -56 -210 -47 -273 15 -102 9 -150 -31 -248 -47 -118 -48
-153 -11 -404 27 -180 31 -193 64 -242 32 -47 37 -62 45 -150 12 -125 4 -362
-15 -431 -8 -30 -22 -61 -30 -70 -30 -29 -48 2 -92 151 -10 35 -21 57 -28 54
-7 -2 -27 -28 -44 -58 -50 -83 -118 -155 -181 -192 -70 -40 -92 -80 -102 -186
-5 -42 -15 -104 -24 -137 -9 -34 -16 -97 -16 -139 0 -42 -8 -105 -17 -139 -14
-48 -17 -96 -15 -223 2 -154 3 -164 31 -225 23 -53 46 -80 125 -153 103 -96
126 -137 126 -228 0 -34 -7 -46 -54 -94 -64 -66 -81 -113 -94 -260 -5 -61 -15
-109 -23 -119 -8 -10 -38 -33 -67 -52 -94 -60 -108 -153 -38 -254 61 -89 67
-149 28 -275 -14 -49 -14 -59 3 -149 23 -114 44 -154 81 -154 15 0 38 -12 55
-29 25 -26 29 -37 29 -88 0 -35 10 -83 24 -123 13 -36 36 -98 51 -139 14 -40
30 -111 35 -156 5 -50 19 -109 35 -147 14 -35 35 -87 45 -116 11 -30 33 -77
49 -105 22 -40 32 -75 40 -147 7 -52 14 -110 16 -128 2 -19 0 -85 -6 -148 -11
-133 -4 -160 39 -149 65 16 84 16 133 5 58 -14 89 -51 89 -108 0 -38 -49 -160
-85 -212 -17 -25 -24 -48 -24 -80 1 -54 -31 -132 -91 -221 -43 -62 -43 -62
-31 -112 15 -65 26 -77 70 -77 40 0 157 34 178 52 7 6 13 24 13 40 0 45 26 88
55 88 28 0 65 -43 65 -76 0 -34 39 -58 75 -44 70 27 88 -17 51 -127 -29 -88
-31 -105 -14 -166 9 -37 8 -51 -10 -102 -37 -108 -46 -204 -34 -385 8 -132 15
-181 36 -245 16 -49 26 -103 26 -140 0 -33 7 -91 16 -130 8 -38 22 -108 31
-155 19 -102 43 -155 81 -174 16 -8 48 -31 72 -51 38 -31 49 -36 79 -31 42 7
98 58 107 100 13 62 67 158 93 169 79 32 158 70 173 84 23 21 23 45 -2 85 -11
18 -20 42 -20 53 0 26 44 109 85 160 65 81 73 132 28 168 -91 74 -130 123
-158 197 -15 41 -47 116 -72 165 -35 73 -49 116 -69 225 -14 74 -43 200 -65
280 -69 256 -53 328 98 441 63 47 93 101 94 169 2 61 -15 83 -88 116 -65 29
-71 39 -42 70 13 14 33 44 44 67 29 62 58 74 130 57 50 -12 61 -12 84 1 43 24
35 58 -24 96 -27 17 -68 47 -90 66 -22 19 -58 40 -80 47 -102 32 -122 64 -110
175 11 95 39 144 102 178 58 31 68 45 87 118 12 47 12 49 -10 64 -43 28 -57
71 -50 149 12 127 34 177 55 123 14 -33 41 -217 38 -255 -2 -30 1 -35 36 -47
22 -7 49 -22 60 -33 40 -36 63 -43 108 -33 23 5 53 21 67 35 23 23 26 36 33
142 7 104 12 125 44 191 47 101 46 135 -6 225 -61 103 -63 182 -8 252 28 35
77 34 156 -3 45 -22 66 -39 79 -63 23 -45 32 -49 85 -42 41 5 49 3 63 -17 9
-13 16 -38 16 -56 0 -18 10 -68 21 -110 23 -81 23 -99 17 -358 l-3 -150 -38
-60 c-20 -33 -44 -81 -53 -107 -14 -43 -14 -52 1 -110 8 -34 29 -83 45 -108
l29 -46 -24 -79 c-14 -44 -25 -91 -25 -105 0 -35 24 -66 61 -79 29 -10 34 -8
65 23 40 40 42 60 14 148 -27 87 -25 110 17 190 38 73 60 93 127 118 65 24 79
64 87 245 9 223 46 305 142 319 56 9 77 -1 102 -48 39 -71 47 -47 46 133 -1
81 6 201 14 267 8 65 22 200 30 299 10 124 23 207 40 265 13 47 31 124 39 170
8 47 17 92 21 101 3 9 36 43 72 74 36 32 78 76 94 98 31 43 54 60 183 139 124
76 153 89 250 109 51 10 120 33 160 53 39 20 114 45 166 56 52 12 113 31 135
44 53 31 122 52 222 70 66 11 90 20 118 44 35 31 89 52 135 52 39 0 98 18 183
57 43 19 125 47 183 63 57 15 116 35 130 45 37 24 98 44 173 55 36 6 89 22
116 35 57 27 148 48 340 75 125 18 158 27 283 74 24 9 114 23 200 32 151 15
216 28 367 73 102 31 441 50 562 32 49 -7 185 -17 303 -21 118 -5 233 -13 255
-19 61 -16 212 -14 285 3 137 33 576 45 870 26 179 -12 260 -22 418 -50 108
-19 243 -29 667 -50 157 -7 211 -14 310 -39 66 -16 201 -40 300 -51 175 -21
182 -23 260 -65 54 -29 107 -48 164 -60 47 -9 112 -29 145 -45 82 -38 130 -50
199 -50 51 0 141 -8 294 -26 30 -4 56 -17 89 -44 31 -25 65 -43 96 -50 61 -13
96 -30 128 -65 14 -15 52 -39 85 -55 41 -19 92 -58 160 -122 55 -52 114 -102
132 -111 17 -9 48 -37 68 -61 20 -25 55 -56 78 -70 84 -51 139 -116 157 -186
6 -25 20 -69 31 -98 14 -38 19 -79 19 -147 0 -74 6 -112 26 -177 23 -72 26
-94 20 -163 -3 -44 -13 -107 -22 -140 -16 -60 -121 -262 -180 -345 -57 -82
-72 -172 -34 -210 34 -34 25 -40 158 110 32 36 77 97 99 135 52 88 106 141
185 180 61 30 62 30 95 113 18 46 47 103 63 127 40 58 65 119 73 175 3 25 19
79 36 120 16 41 37 104 46 140 9 35 24 78 32 94 9 16 26 61 39 100 32 92 42
285 40 716 -2 320 -2 327 -29 422 -24 86 -27 113 -26 240 2 131 -1 150 -25
223 -53 158 -43 476 23 692 91 300 114 403 141 613 17 144 18 163 4 270 -15
115 -25 142 -71 191 -15 16 -27 46 -33 83 -5 31 -32 126 -60 211 -28 85 -60
200 -71 256 -20 99 -38 151 -59 164 -5 3 -34 49 -64 103 -47 83 -56 109 -66
178 -15 111 -23 137 -69 208 -22 33 -43 75 -46 91 -29 129 -45 163 -96 206
-36 30 -61 63 -85 112 -38 78 -66 119 -135 192 -38 40 -49 61 -59 107 -16 80
-50 139 -131 229 -40 45 -69 86 -69 98 0 12 -7 37 -14 56 -12 27 -21 35 -40
35 -15 0 -26 4 -26 10 0 5 -30 40 -66 77 -41 41 -78 91 -96 128 -31 64 -84
154 -116 195 -11 14 -41 70 -67 125 -47 97 -82 146 -175 244 -30 31 -69 93
-109 174 -35 69 -77 138 -93 154 -17 15 -39 48 -51 72 -13 28 -35 53 -61 69
-23 14 -86 75 -141 135 -55 60 -129 139 -165 177 -408 423 -472 499 -497 584
-14 48 -56 100 -109 137 -11 8 -33 33 -47 56 -15 23 -46 55 -71 72 -52 36 -93
86 -129 156 -24 48 -37 60 -162 150 -79 57 -146 120 -179 170 -18 28 -69 87
-112 131 -44 45 -87 96 -96 113 -10 17 -32 39 -50 49 -18 9 -46 31 -63 48 -16
17 -46 40 -66 52 -19 12 -43 30 -53 41 -10 11 -57 39 -105 62 -47 23 -95 50
-106 60 -11 10 -56 29 -101 43 -64 20 -88 34 -115 64 -19 21 -69 57 -112 81
-66 37 -85 42 -125 39 -35 -2 -56 3 -82 19 -41 25 -95 35 -131 24z m-7676
-10210 c40 -15 44 -38 17 -89 -24 -44 -24 -45 -6 -91 10 -25 20 -64 22 -86 2
-22 9 -82 15 -132 13 -102 6 -123 -36 -123 -30 0 -42 16 -55 75 -22 95 -74
250 -92 274 -24 32 -38 87 -31 123 5 23 16 35 47 49 41 19 68 19 119 0z"/>
<path d="M10225 9757 c-22 -5 -93 -6 -158 -3 -137 7 -284 -7 -376 -35 -51 -15
-113 -21 -318 -28 -206 -7 -258 -12 -278 -25 -50 -33 -22 -52 97 -67 129 -16
254 -38 363 -64 55 -13 139 -26 187 -30 101 -7 187 -27 225 -52 14 -10 58 -32
97 -48 77 -33 104 -64 93 -106 -8 -32 -38 -46 -136 -64 -42 -8 -87 -24 -101
-35 -54 -43 -70 -51 -120 -59 -73 -12 -104 -38 -108 -89 -3 -34 2 -47 22 -67
34 -34 70 -32 103 6 32 37 95 68 136 69 42 0 86 -27 93 -57 10 -37 -29 -68
-101 -83 -83 -17 -84 -39 -6 -129 34 -40 43 -44 125 -62 66 -14 99 -27 135
-53 83 -61 91 -62 191 -16 125 58 192 51 176 -17 -24 -97 -22 -101 74 -138 37
-14 76 -35 85 -45 10 -11 38 -27 62 -36 41 -16 58 -16 197 -5 129 11 164 18
240 47 74 29 119 38 265 55 143 16 204 28 326 65 188 57 202 63 209 80 8 21
-27 52 -68 60 -20 3 -64 1 -98 -5 -78 -15 -490 -31 -873 -34 -273 -2 -292 -1
-330 18 -55 27 -57 55 -8 123 21 28 47 67 58 84 20 32 30 37 123 54 13 3 51
33 85 67 111 113 205 135 328 77 36 -16 97 -34 139 -40 124 -18 172 -30 226
-55 29 -14 78 -32 110 -40 131 -34 923 -49 1022 -20 72 22 71 46 -3 109 -51
44 -167 96 -214 96 -9 0 -59 20 -111 45 -52 25 -102 45 -110 45 -9 0 -47 20
-84 45 -38 24 -85 47 -105 50 -20 3 -75 25 -123 50 -66 34 -108 48 -180 60
-127 22 -150 30 -250 90 -48 29 -102 55 -121 59 -18 3 -53 19 -78 34 -24 16
-67 37 -94 47 -28 10 -64 29 -82 42 -52 38 -116 48 -235 36 -62 -6 -127 -7
-163 -2 -78 11 -508 8 -560 -4z"/>
<path d="M16225 9461 c-77 -21 -176 -47 -220 -58 -44 -12 -168 -31 -275 -43
-115 -13 -226 -31 -270 -45 -115 -35 -115 -35 -276 -45 -84 -5 -183 -17 -220
-25 -79 -18 -227 -76 -359 -140 -102 -49 -186 -72 -295 -81 -93 -7 -172 -35
-221 -77 -20 -18 -52 -41 -70 -52 -19 -11 -62 -58 -97 -105 -35 -47 -79 -106
-100 -132 -72 -93 -76 -116 -62 -338 6 -107 15 -226 20 -265 12 -94 34 -565
35 -745 1 -122 6 -168 32 -290 17 -80 36 -189 42 -243 6 -54 20 -153 31 -220
14 -84 20 -170 20 -277 0 -85 5 -193 10 -240 11 -85 13 -426 5 -660 -5 -147
-10 -155 -107 -215 -200 -123 -243 -147 -310 -169 -40 -13 -108 -41 -152 -62
l-79 -37 -148 -3 c-162 -4 -209 -16 -209 -55 0 -25 48 -72 104 -102 37 -20 56
-22 191 -22 142 0 153 1 200 26 28 14 86 39 130 55 44 15 105 43 135 61 30 19
80 41 110 50 30 8 72 27 93 41 101 67 215 300 238 486 5 44 22 122 36 171 31
103 34 187 10 280 -11 41 -17 112 -18 225 -2 224 -2 276 2 415 3 107 0 131
-25 218 -30 106 -34 187 -17 315 8 60 6 89 -10 165 -11 53 -19 130 -19 182 0
50 -7 146 -14 215 -8 69 -17 234 -20 368 -5 205 -4 247 9 272 35 67 101 78
193 30 114 -59 324 -80 402 -40 22 11 56 20 76 20 31 0 43 -7 73 -41 67 -78
152 -157 185 -173 44 -21 103 -33 223 -47 128 -15 177 -9 294 36 116 45 196
106 276 211 82 107 109 159 139 260 29 101 36 112 84 132 19 7 45 23 58 35 25
23 52 103 52 153 0 35 36 73 102 109 33 17 44 18 90 8 69 -14 89 -4 153 79 46
58 50 67 48 113 -1 28 9 101 23 164 20 95 22 117 12 139 -31 64 -133 67 -343
13z m-545 -685 c25 -23 59 -50 77 -61 76 -45 57 -97 -41 -109 -53 -6 -167 -53
-180 -75 -3 -4 -30 -21 -61 -35 -61 -31 -87 -28 -112 10 -14 23 -14 28 2 72
10 26 30 67 44 92 15 25 33 57 40 72 14 27 39 48 90 74 39 21 91 6 141 -40z"/>
<path d="M15863 7769 c-18 -10 -83 -130 -83 -155 0 -5 -21 -43 -47 -84 -25
-41 -55 -95 -66 -120 -11 -25 -43 -81 -72 -125 -103 -160 -207 -364 -246 -480
-37 -114 -60 -161 -97 -200 -31 -33 -90 -116 -119 -168 -16 -27 -47 -76 -70
-110 -23 -34 -59 -88 -80 -121 -21 -32 -57 -84 -80 -116 -23 -32 -53 -81 -67
-107 -13 -27 -45 -80 -71 -118 -56 -83 -81 -130 -105 -199 -10 -28 -34 -94
-52 -146 -34 -94 -124 -281 -159 -331 -10 -14 -31 -62 -48 -107 -16 -45 -52
-119 -80 -165 -28 -46 -59 -103 -69 -128 -11 -24 -33 -66 -50 -93 -17 -27 -39
-72 -48 -100 -19 -58 -58 -117 -104 -161 -18 -16 -47 -61 -65 -100 -31 -67
-117 -166 -213 -247 -18 -14 -32 -35 -32 -46 0 -48 -45 -160 -86 -215 -23 -31
-59 -91 -78 -131 -24 -50 -57 -97 -101 -141 -60 -62 -86 -97 -174 -239 -39
-62 -85 -113 -159 -174 -29 -24 -61 -60 -71 -81 -22 -42 -75 -91 -146 -135
-35 -21 -62 -52 -109 -126 -35 -54 -69 -101 -75 -105 -7 -3 -35 -41 -62 -83
-28 -43 -67 -90 -88 -107 -20 -16 -71 -63 -114 -102 -43 -40 -81 -73 -86 -73
-4 0 -23 -21 -41 -47 -19 -27 -68 -85 -110 -130 -57 -63 -88 -88 -126 -104
-29 -11 -62 -32 -75 -46 -37 -38 -68 -51 -196 -77 -167 -35 -450 -43 -524 -15
-39 15 -76 19 -182 19 -125 0 -334 10 -600 29 l-118 9 -87 53 c-48 29 -105 67
-127 84 -22 18 -86 55 -141 83 -56 28 -130 73 -165 100 -63 48 -155 94 -214
107 -16 4 -60 29 -97 57 -40 29 -88 55 -118 63 -59 16 -130 59 -218 133 -34
29 -89 69 -122 88 -33 19 -106 69 -162 112 -57 42 -131 93 -165 112 -33 19
-93 62 -131 94 -73 61 -200 146 -288 192 -56 29 -96 28 -109 -3 -5 -13 2 -24
22 -38 15 -11 53 -45 84 -76 30 -31 77 -68 105 -82 27 -14 58 -35 69 -47 11
-12 38 -33 61 -46 22 -13 55 -40 73 -60 18 -19 52 -44 76 -54 23 -10 54 -31
69 -47 14 -15 48 -44 75 -63 105 -75 147 -106 186 -141 22 -20 64 -51 94 -69
30 -17 73 -46 95 -65 23 -18 64 -44 92 -58 28 -14 64 -37 80 -50 16 -13 48
-34 71 -46 23 -11 50 -32 60 -46 10 -14 33 -46 51 -71 39 -52 38 -81 -4 -109
-15 -9 -52 -40 -83 -69 -35 -33 -78 -60 -116 -75 -33 -12 -74 -29 -92 -36 -41
-18 -85 -92 -91 -155 -4 -43 -1 -53 38 -108 49 -69 72 -142 59 -187 -17 -57
-43 -79 -142 -118 -136 -53 -211 -70 -269 -63 -33 5 -88 -1 -176 -18 -237 -46
-672 -61 -1102 -39 -203 11 -247 11 -323 -3 -63 -11 -98 -12 -125 -5 -44 12
-386 -2 -447 -18 -97 -25 -603 -4 -820 34 -157 27 -382 104 -475 161 -58 35
-130 64 -161 64 -11 0 -83 32 -162 71 -111 56 -152 82 -187 120 -25 26 -76 72
-115 102 -50 38 -88 79 -132 143 -228 327 -327 494 -377 633 -31 87 -43 106
-89 137 -19 12 -37 34 -41 47 -3 14 -24 54 -45 90 -39 63 -40 68 -50 200 -17
211 -28 281 -63 401 -31 104 -33 121 -33 261 1 150 1 150 36 230 20 44 48 112
63 151 23 63 29 71 49 67 59 -11 79 73 52 226 -16 87 -16 114 -6 202 10 89 9
110 -5 161 -15 51 -15 67 -5 109 8 30 12 95 10 171 -2 68 0 149 5 180 7 43 4
81 -9 153 -15 80 -16 106 -7 158 8 43 8 75 1 106 -7 34 -6 61 6 112 9 40 15
115 15 182 0 135 2 138 100 157 36 6 77 19 93 28 35 21 67 87 67 139 0 65 -37
170 -75 212 -43 47 -55 79 -55 145 0 84 -24 150 -70 188 -59 51 -86 64 -104
48 -9 -6 -20 -28 -25 -47 -13 -47 5 -91 63 -152 39 -43 86 -145 86 -188 0 -23
-91 -113 -114 -113 -12 0 -37 11 -57 24 -19 13 -55 29 -80 35 -24 6 -68 24
-96 39 -49 25 -55 26 -80 12 -14 -8 -37 -35 -51 -60 -13 -25 -31 -56 -38 -70
-18 -32 -18 -104 1 -209 15 -87 12 -120 -13 -159 -12 -18 -23 -22 -56 -21 -54
3 -63 -3 -77 -54 -14 -51 -7 -98 20 -136 28 -39 26 -59 -9 -126 -45 -86 -37
-161 25 -235 29 -34 35 -50 35 -87 0 -48 -10 -72 -47 -117 -24 -29 -27 -63
-11 -162 2 -15 -18 -40 -76 -92 -43 -40 -82 -70 -87 -67 -5 3 -13 23 -19 45
-6 21 -30 63 -53 92 -24 29 -64 96 -90 149 -40 84 -53 101 -104 139 -67 50
-76 60 -105 115 -11 22 -35 58 -52 80 -39 49 -122 195 -145 255 -44 114 -279
383 -368 422 -26 11 -64 35 -83 53 -44 42 -100 57 -215 57 -95 0 -177 -21
-232 -60 -16 -10 -62 -31 -103 -47 -41 -15 -109 -47 -150 -70 -108 -61 -246
-129 -315 -155 -33 -13 -83 -40 -110 -60 -28 -21 -75 -51 -106 -68 -58 -33
-84 -54 -115 -94 -11 -14 -40 -34 -65 -45 -25 -11 -74 -47 -110 -80 -35 -33
-109 -89 -164 -124 -55 -34 -122 -80 -149 -102 -28 -21 -71 -49 -98 -63 -26
-13 -62 -37 -80 -52 -48 -42 -175 -126 -237 -157 -68 -34 -147 -89 -189 -131
l-32 -33 0 -2426 0 -2425 10240 0 10240 0 0 1974 0 1974 -31 7 c-17 4 -45 20
-63 35 -17 16 -49 31 -69 35 -76 15 -138 82 -206 221 -33 68 -28 66 -191 113
-58 17 -143 51 -190 75 -63 33 -105 47 -165 56 -120 18 -148 27 -207 68 l-53
37 -331 1 c-393 2 -498 13 -669 68 -32 10 -113 19 -225 25 -116 5 -187 13
-211 23 -20 9 -68 44 -107 80 -80 72 -265 171 -386 208 -39 12 -90 36 -115 54
-69 50 -117 71 -216 96 -105 27 -178 57 -220 91 -52 43 -128 87 -170 98 -22 6
-60 24 -85 41 -74 50 -288 150 -395 185 -121 38 -150 53 -207 103 -42 36 -82
52 -203 82 -55 13 -189 99 -252 162 -62 61 -77 100 -70 177 5 57 75 243 109
293 26 38 93 212 113 293 35 144 58 205 106 285 51 85 99 191 99 219 0 9 12
41 26 71 24 52 55 131 110 280 13 36 24 79 24 95 0 37 -30 104 -57 128 -25 22
-81 30 -110 16z"/>
<path d="M6111 5946 c-27 -43 -39 -115 -29 -181 4 -27 11 -111 17 -186 14
-196 35 -243 162 -369 62 -62 113 -123 144 -175 26 -44 68 -109 92 -145 23
-36 43 -76 43 -90 0 -46 26 -70 74 -70 62 0 84 22 98 96 6 33 8 77 4 97 -9 46
-82 129 -157 176 -75 48 -112 93 -155 187 -22 49 -52 95 -77 120 -23 22 -60
69 -81 104 l-39 62 -1 162 c-2 138 -5 167 -21 201 -26 52 -47 55 -74 11z"/>
<path d="M12003 5201 c-31 -29 -29 -38 12 -75 65 -60 241 -116 318 -102 49 9
63 28 47 65 -30 72 -132 122 -264 128 -83 5 -93 3 -113 -16z"/>
<path d="M10717 4353 c-14 -13 -7 -51 11 -58 9 -4 55 -16 100 -26 46 -10 107
-32 136 -49 74 -42 148 -58 326 -70 167 -12 212 -19 291 -50 109 -41 371 -60
829 -60 320 0 388 6 535 44 32 9 92 16 131 16 74 0 218 22 267 42 63 25 79 83
31 115 -21 14 -32 14 -111 -1 -114 -21 -280 -21 -474 1 -148 16 -160 16 -260
-1 -139 -24 -310 -31 -391 -17 -36 6 -101 28 -145 48 -72 33 -87 36 -191 41
-75 3 -165 -2 -267 -13 -135 -16 -172 -17 -302 -7 -81 7 -177 12 -213 12 -36
0 -107 9 -159 20 -99 21 -133 24 -144 13z"/>
<path d="M4280 3856 c-16 -50 -14 -139 4 -174 21 -41 42 -47 72 -17 33 33 32
93 -4 165 -33 67 -55 75 -72 26z"/>
</g>
</svg>
